<svg width="15" height="24" viewBox="0 0 15 24" fill="none" xmlns="http://www.w3.org/2000/svg">
<path d="M8.05917 0.963379C8.05917 0.43127 7.62781 -8.97413e-05 7.0957 -8.97646e-05C6.56359 -8.97879e-05 6.13223 0.43127 6.13223 0.963379L7.0957 0.963379L8.05917 0.963379ZM6.41443 23.0311C6.79068 23.4074 7.40072 23.4074 7.77698 23.0311L13.9085 16.8997C14.2847 16.5234 14.2847 15.9134 13.9085 15.5371C13.5322 15.1608 12.9222 15.1608 12.5459 15.5371L7.0957 20.9873L1.6455 15.5371C1.26924 15.1608 0.659208 15.1608 0.28295 15.5371C-0.0933077 15.9134 -0.0933077 16.5234 0.28295 16.8997L6.41443 23.0311ZM7.0957 0.963379L6.13223 0.963379L6.13223 22.3499L7.0957 22.3499L8.05917 22.3499L8.05917 0.963379L7.0957 0.963379Z" fill="white"/>
</svg>
