<svg width="511" height="30" viewBox="0 0 511 30" fill="none" xmlns="http://www.w3.org/2000/svg">
<path d="M2 12.728C0.89543 12.728 -9.65645e-08 13.6235 0 14.728C9.65645e-08 15.8326 0.895431 16.728 2 16.728L2 14.728L2 12.728ZM510.081 16.1422C510.862 15.3611 510.862 14.0948 510.081 13.3138L497.353 0.585848C496.572 -0.1952 495.306 -0.1952 494.525 0.585849C493.743 1.3669 493.743 2.63323 494.525 3.41428L505.838 14.728L494.525 26.0417C493.743 26.8227 493.743 28.0891 494.525 28.8701C495.306 29.6512 496.572 29.6512 497.353 28.8701L510.081 16.1422ZM2 14.728L2 16.728L508.667 16.728L508.667 14.728L508.667 12.728L2 12.728L2 14.728Z" fill="#222222"/>
</svg>
