<svg width="510" height="23" viewBox="0 0 510 23" fill="none" xmlns="http://www.w3.org/2000/svg">
<path d="M1.5 9.5459C0.671573 9.5459 -7.24234e-08 10.2175 0 11.0459C7.24234e-08 11.8743 0.671573 12.5459 1.5 12.5459L1.5 11.0459L1.5 9.5459ZM509.227 12.1065C509.813 11.5207 509.813 10.571 509.227 9.98519L499.681 0.439253C499.096 -0.146534 498.146 -0.146534 497.56 0.439253C496.974 1.02504 496.974 1.97479 497.56 2.56057L506.045 11.0459L497.56 19.5311C496.974 20.1169 496.974 21.0667 497.56 21.6525C498.146 22.2382 499.096 22.2382 499.681 21.6525L509.227 12.1065ZM1.5 11.0459L1.5 12.5459L508.167 12.5459L508.167 11.0459L508.167 9.54585L1.5 9.5459L1.5 11.0459Z" fill="#222222"/>
</svg>
